<svg preserveAspectRatio="none" overflow="visible" style="display: block;" width="14.0351" height="14.0351" viewBox="0 0 14.0351 14.0351" fill="none" xmlns="http://www.w3.org/2000/svg">
<g id="Frame">
<path id="Vector" d="M9.06473 8.18709H8.60274L8.439 8.02919C9.14075 7.21048 9.50332 6.09352 9.30449 4.90639C9.02964 3.28066 7.67291 1.98241 6.03549 1.78358C3.5618 1.47949 1.47993 3.56136 1.78403 6.03504C1.98286 7.67247 3.2811 9.02919 4.90683 9.30405C6.09397 9.50288 7.21093 9.14031 8.02964 8.43855L8.18754 8.60229V9.06428L10.6729 11.5497C10.9127 11.7894 11.3045 11.7894 11.5443 11.5497C11.784 11.3099 11.784 10.9181 11.5443 10.6783L9.06473 8.18709ZM5.55596 8.18709C4.09982 8.18709 2.92438 7.01165 2.92438 5.55551C2.92438 4.09937 4.09982 2.92393 5.55596 2.92393C7.0121 2.92393 8.18754 4.09937 8.18754 5.55551C8.18754 7.01165 7.0121 8.18709 5.55596 8.18709Z" fill="black"/>
</g>
</svg>
